<svg width="1100" height="1100" viewBox="0 0 1100 1100" fill="none" xmlns="http://www.w3.org/2000/svg">
<rect width="1100" height="1100" rx="300" fill="#DB825C"/>
<path fill-rule="evenodd" clip-rule="evenodd" d="M786.606 308.038L786.957 311.37C787.122 313.218 787.542 318.046 787.784 321.545C788.269 328.542 788.824 338.66 789.113 351.169C789.69 376.184 789.198 410.788 784.922 449.147C776.387 525.707 752.709 617.84 691.707 678.227C620.548 754.974 516.783 793.564 383.344 793.564C370.576 793.564 357.55 793.2 344.269 792.472C342.231 792.469 336.326 792.354 327.299 791.581L314.177 790.867L314.028 788.201C308.173 683.196 311.235 612.746 324.835 558.257C338.462 503.662 362.623 465.265 398.561 424.291C430.769 382.52 483.175 352.335 549.329 333.15C615.55 313.944 695.797 305.686 783.996 307.971L786.606 308.038ZM638.663 628.999C590.481 680.972 521.285 711.83 431.979 719.369L577.565 570.514L577.568 570.512C584.413 563.527 587.834 554.452 587.839 545.395C587.844 536.14 584.282 526.884 577.168 519.882C563.092 506.032 540.436 506.198 526.583 520.276L376.878 672.34C379.409 615.928 393.947 539.518 446.011 479.399C499.877 417.156 601.764 383.732 716.976 379.401C716.324 409.039 713.459 452.535 702.8 497.641C691.751 544.396 672.385 592.638 638.663 628.999Z" fill="#FEFDFC"/>
</svg>
